# xmcd
#
# Track frame offsets:
#       183
#       12608
#       32433
#       47158
#       70783
#       86620
#       100845
#       114533
#       131170
#       147670
#       170895
#       182920
#       198133
#       212058
#
# Disc length: 3031 seconds
#
# Revision: 1
# Processed by: cddbd v1.4PL0 Copyright (c) Steve Scherf et al.
# Submitted via: WhereIsIt 3.55
#
DISCID=d00bd50e
DTITLE=Dizionario della canzone italiana - 32 Cantanapoli
DYEAR=1990
DGENRE=Oldies
TTITLE0=Domenico Modugno - Strada 'nfosa
TTITLE1=Fausto Leali - Vierno
TTITLE2=Sofia Loren - Che m'è 'mparato a fà
TTITLE3=Nunzio Gallo - Vurria
TTITLE4=Aurelio Fierro - Guaglione
TTITLE5=Peppino di Capri - Nun è peccato
TTITLE6=Miranda Martino - 'E spingole frangese
TTITLE7=Ornella Vanoni - Tu si 'na cosa grande
TTITLE8=Gabriella Ferri - Guapparia
TTITLE9=Mirna Doris - Era de Maggio
TTITLE10=Marina Pagano - Canzone 'e sott''o carcere
TTITLE11=Giacomo Rondinella - 'O marinariello
TTITLE12=Feruccio Tagliavini - Torna a Surriento
TTITLE13=Marina Pagano - Michelemmà
EXTD=
EXTT0=
EXTT1=
EXTT2=
EXTT3=
EXTT4=
EXTT5=
EXTT6=
EXTT7=
EXTT8=
EXTT9=
EXTT10=
EXTT11=
EXTT12=
EXTT13=
PLAYORDER=
